# xmcd
#
# Track frame offsets:
#	150
#	17679
#	38942
#	61445
#	82896
#	100911
#	118550
#	138672
#	160582
#	179960
#
# Disc length: 2677 seconds
#
# Revision: 2778884225
# Processed by: cddbd v1.5.2PL0 Copyright (c) Steve Scherf et al.
# Submitted via: EZCDAudioConverter 8.0.2.1
#
DISCID=830a730a
DTITLE=沙宝亮 - 同名专辑
DYEAR=2003
DGENRE=World Pop
TTITLE0=祝你幸福
TTITLE1=飄
TTITLE2=在乎谁
TTITLE3=自由落体
TTITLE4=I Am In Love
TTITLE5=如此娱乐
TTITLE6=情感物语
TTITLE7=似是而非
TTITLE8=Senorita
TTITLE9=暗香
EXTD=
EXTT0=
EXTT1=
EXTT2=
EXTT3=
EXTT4=
EXTT5=
EXTT6=
EXTT7=
EXTT8=
EXTT9=
PLAYORDER=
